<svg id="Capa_1" data-name="Capa 1" xmlns="http://www.w3.org/2000/svg" viewBox="0 0 512 512"><defs><style>.cls-1{fill:#201e17;}</style></defs><title>foreground</title><path class="cls-1" d="M371.62,256.72q0,63,0,126.07c0,16.5-5.55,19.86-19.61,11.75Q255.63,339,159.31,283.42c-12.95-7.44-19.09-18.17-19-33,.17-30.53,0-61.07.07-91.6,0-13.65,5.9-23.89,17.82-30.67,5.7-3.24,11.31-6.66,17-9.91,15.67-8.95,20.67-6.23,20.76,11.56.14,29.22,0,58.44.14,87.66A102.9,102.9,0,0,0,197.83,235c1,5.34,3.32,10.26,9.69,10.88,6.59.65,12.43-.83,16-7.16,3.69-6.49,4.62-13.59,4.65-20.88.06-19.37.26-38.74,0-58.11-.18-14.59,5.95-25.15,18.62-32.18,7.18-4,14.12-8.39,21.4-12.15,9.18-4.75,15.15-1.67,15.2,8.44.24,44,.13,88,0,132,0,6.71-1.94,13.21-6.88,17.95-6.26,6-3.93,10.39,1.93,14.22s11.76,7.17,17.75,10.56c14.07,8,19.31,5.16,19.53-10.71.21-15.1.09-30.2.1-45.31,0-27.25.2-54.5-.07-81.75-.16-15.32,6.07-26.45,19.52-33.72,6.93-3.74,13.55-8.06,20.56-11.64,9.54-4.87,15.22-1.52,15.63,9.31.39,10.49.13,21,.13,31.51Q371.63,206.49,371.62,256.72Z"/></svg>